<svg width="30" height="30" viewBox="0 0 30 30" fill="none" xmlns="http://www.w3.org/2000/svg">
<rect x="0.5" y="0.5" width="29" height="29" stroke="black"/>
<path d="M12.74 8V9.46H7.8V14.04H12.24V15.5H7.8V20.54H12.74V22H6.06V8H12.74ZM18.1408 12V12.48C18.5541 12.16 19.0874 12 19.7408 12H20.6608C21.7408 12 22.5408 12.2533 23.0608 12.76C23.5941 13.2667 23.8608 14.08 23.8608 15.2V22H22.1608V14.8C22.1608 14.4 22.0408 14.0867 21.8008 13.86C21.5741 13.62 21.2608 13.5 20.8608 13.5H19.5408C19.1008 13.5 18.7741 13.62 18.5608 13.86C18.3474 14.0867 18.2408 14.3333 18.2408 14.6V22H16.5408V12H18.1408Z" fill="#242424"/>
</svg>
